<svg xmlns="http://www.w3.org/2000/svg" width="360" height="220" viewBox="0 0 360 220" role="img">

  <defs>
    <linearGradient id="sky" x1="0" x2="1" y1="0" y2="1">
      <stop offset="0%" stop-color="#1d4ed8"/>
      <stop offset="52%" stop-color="#60a5fa"/>
      <stop offset="100%" stop-color="#bfdbfe"/>
    </linearGradient>
    <linearGradient id="night" x1="0" x2="1" y1="0" y2="1">
      <stop offset="0%" stop-color="#0f172a"/>
      <stop offset="65%" stop-color="#1e3a8a"/>
      <stop offset="100%" stop-color="#38bdf8"/>
    </linearGradient>
    <linearGradient id="rain" x1="0" x2="1" y1="0" y2="1">
      <stop offset="0%" stop-color="#0f172a"/>
      <stop offset="45%" stop-color="#2563eb"/>
      <stop offset="100%" stop-color="#93c5fd"/>
    </linearGradient>
    <linearGradient id="ground" x1="0" x2="1" y1="0" y2="0">
      <stop offset="0%" stop-color="#166534"/>
      <stop offset="100%" stop-color="#22c55e"/>
    </linearGradient>
    <filter id="soft" x="-20%" y="-20%" width="140%" height="140%">
      <feDropShadow dx="0" dy="6" stdDeviation="6" flood-color="#0f172a" flood-opacity="0.18"/>
    </filter>
  </defs>

  <rect width="360" height="220" rx="28" fill="url(#sky)"/>
  <circle cx="48" cy="38" r="2.2" fill="#fff" opacity=".65"/>
  <circle cx="296" cy="42" r="2" fill="#fff" opacity=".55"/>
  <circle cx="324" cy="82" r="1.8" fill="#fff" opacity=".45"/>
  
  <g filter="url(#soft)" opacity=".98">
    <ellipse cx="174" cy="112" rx="92" ry="42" fill="#f8fafc"/>
    <circle cx="107" cy="108" r="38" fill="#e2e8f0"/>
    <circle cx="163" cy="80" r="52" fill="#ffffff"/>
    <circle cx="230" cy="103" r="44" fill="#f1f5f9"/>
  </g>
  <g filter="url(#soft)" opacity=".88">
    <ellipse cx="247" cy="78" rx="64" ry="30" fill="#dbeafe"/>
    <circle cx="210" cy="77" r="28" fill="#eff6ff"/>
    <circle cx="248" cy="54" r="34" fill="#ffffff"/>
    <circle cx="290" cy="73" r="26" fill="#dbeafe"/>
  </g>

  <path d="M0 174 C62 142, 110 168, 160 151 C222 130, 278 150, 360 126 L360 220 L0 220 Z" fill="url(#ground)" opacity=".92"/>
  <path d="M0 194 C76 170, 124 192, 198 176 C262 161, 314 174, 360 158 L360 220 L0 220 Z" fill="#dcfce7" opacity=".72"/>
</svg>
