<svg xmlns="http://www.w3.org/2000/svg" width="360" height="220" viewBox="0 0 360 220" role="img">

  <defs>
    <linearGradient id="sky" x1="0" x2="1" y1="0" y2="1">
      <stop offset="0%" stop-color="#1d4ed8"/>
      <stop offset="52%" stop-color="#60a5fa"/>
      <stop offset="100%" stop-color="#bfdbfe"/>
    </linearGradient>
    <linearGradient id="night" x1="0" x2="1" y1="0" y2="1">
      <stop offset="0%" stop-color="#0f172a"/>
      <stop offset="65%" stop-color="#1e3a8a"/>
      <stop offset="100%" stop-color="#38bdf8"/>
    </linearGradient>
    <linearGradient id="rain" x1="0" x2="1" y1="0" y2="1">
      <stop offset="0%" stop-color="#0f172a"/>
      <stop offset="45%" stop-color="#2563eb"/>
      <stop offset="100%" stop-color="#93c5fd"/>
    </linearGradient>
    <linearGradient id="ground" x1="0" x2="1" y1="0" y2="0">
      <stop offset="0%" stop-color="#166534"/>
      <stop offset="100%" stop-color="#22c55e"/>
    </linearGradient>
    <filter id="soft" x="-20%" y="-20%" width="140%" height="140%">
      <feDropShadow dx="0" dy="6" stdDeviation="6" flood-color="#0f172a" flood-opacity="0.18"/>
    </filter>
  </defs>

  <rect width="360" height="220" rx="28" fill="url(#sky)"/>
  <circle cx="48" cy="38" r="2.2" fill="#fff" opacity=".65"/>
  <circle cx="296" cy="42" r="2" fill="#fff" opacity=".55"/>
  <circle cx="324" cy="82" r="1.8" fill="#fff" opacity=".45"/>
  
  <g filter="url(#soft)" opacity=".9">
    <ellipse cx="181" cy="84" rx="82" ry="38" fill="#f8fafc"/>
    <circle cx="122" cy="82" r="34" fill="#e2e8f0"/>
    <circle cx="176" cy="58" r="46" fill="#ffffff"/>
    <circle cx="236" cy="80" r="38" fill="#e2e8f0"/>
  </g>
  <g stroke="#f8fafc" stroke-width="12" stroke-linecap="round" opacity=".92">
    <line x1="58" y1="130" x2="302" y2="130"/>
    <line x1="32" y1="158" x2="280" y2="158"/>
    <line x1="84" y1="186" x2="326" y2="186"/>
  </g>

  <path d="M0 174 C62 142, 110 168, 160 151 C222 130, 278 150, 360 126 L360 220 L0 220 Z" fill="url(#ground)" opacity=".92"/>
  <path d="M0 194 C76 170, 124 192, 198 176 C262 161, 314 174, 360 158 L360 220 L0 220 Z" fill="#dcfce7" opacity=".72"/>
</svg>